Coordinates
version=1
nRows=5
nColumns=40
inDegrees=yes

Units are S.I. units (second, meters, Newtons, ...)
If the header above contains a line with 'inDegrees', this indicates whether rotational values are in degrees (yes) or radians (no).

endheader
time	pelvis_tilt	pelvis_list	pelvis_rotation	pelvis_tx	pelvis_ty	pelvis_tz	hip_flexion_r	hip_adduction_r	hip_rotation_r	knee_angle_r	knee_angle_r_beta	ankle_angle_r	subtalar_angle_r	mtp_angle_r	hip_flexion_l	hip_adduction_l	hip_rotation_l	knee_angle_l	knee_angle_l_beta	ankle_angle_l	subtalar_angle_l	mtp_angle_l	lumbar_extension	lumbar_bending	lumbar_rotation	arm_flex_r	arm_add_r	arm_rot_r	elbow_flex_r	pro_sup_r	wrist_flex_r	wrist_dev_r	arm_flex_l	arm_add_l	arm_rot_l	elbow_flex_l	pro_sup_l	wrist_flex_l	wrist_dev_l
      9.00000000000000000000	      9.00219298716203830679	     11.71036432635744262143	   -174.20313424428090343099	      0.35944699938653013049	      0.77142615631115940555	     -0.90076368120242511495	     49.96245640959268285997	    -38.77181981111659325734	    -29.39847151891436638493	     61.68299240507576541859	      1.07657130995122796158	      6.56748339254336954696	      0.00000000000000000000	      0.00000000000000000000	     74.43834154172286332596	    -34.95764585405709112820	     13.70810283511280758262	     66.88009630283376338866	      1.16727788453533576352	      9.32738494500435777468	      0.00000000000000000000	      0.00000000000000000000	    -72.22109160973880648271	     15.88450079363815881095	     24.33881500254287644225	    -89.72568628373670662768	   -119.76214652709921892892	    -68.85177636589224903219	     68.10964274295476172938	     54.69095160260745558389	      0.00000000000000000000	      0.00000000000000000000	     59.32006665513194576533	     10.80282219174086755231	      9.26662422037683697340	     18.19116759901942614874	     83.04759055985950055856	      0.00000000000000000000	      0.00000000000000000000
      9.00500000000000078160	      9.14503742793512941489	     11.63057972498563152897	   -174.28091886124431653116	      0.35940922171525802042	      0.77160185915771550835	     -0.90089816814939494005	     50.14918550211167769248	    -38.77744172788944609920	    -29.29991191211423640084	     61.61858470588786929056	      1.07544718353676516109	      6.49227660078818136213	      0.00000000000000000000	      0.00000000000000000000	     74.42467871324674888456	    -34.95787796878869357897	     13.55882027440457626710	     66.80154423848804867703	      1.16590689237826450331	      9.31270527381177082304	      0.00000000000000000000	      0.00000000000000000000	    -72.12819239715359742604	     15.80541332158752787507	     24.26270016252321326533	    -89.72709103249459872131	   -119.76231173437547283811	    -68.90723558402947901413	     68.15642293209984359237	     54.24175958571810696185	      0.00000000000000000000	      0.00000000000000000000	     59.29717299175311495674	     10.80466640048037341160	      9.30940463429633169312	     18.25880714317774788924	     82.38384956916361545609	      0.00000000000000000000	      0.00000000000000000000
      9.00999999999999978684	     14.31398666971309729945	      6.69850095072522400130	   -178.57102949666293056907	      0.35746020664376881859	      0.75854355522526517586	     -0.91538147055924579121	     63.21403224446267188341	    -39.18540608592905272189	    -18.99560133003178563627	     64.31188676760386613296	      1.12245417226446075887	      6.65273099730204542368	      0.00000000000000000000	      0.00000000000000000000	     75.19554420735396149666	    -37.00651902619639344039	      6.40105513550457327909	     67.19328160419982509666	      1.17274399921302419081	      9.43535423033069875487	      0.00000000000000000000	      0.00000000000000000000	    -63.53167317978346062546	      7.66466903863443960176	      8.87852488085659352635	     57.19509860554076396966	    -13.24182168082112021068	     12.37023516498243758122	     20.96091822912056201744	     83.46708922232569705102	      0.00000000000000000000	      0.00000000000000000000	     55.34167418867707510799	     -0.06067154313181735009	      8.13938028514441214156	     21.05256183333478148256	     83.52841994124031543834	      0.00000000000000000000	      0.00000000000000000000
      9.01500000000000056843	     14.33700120393570109911	      6.69674597462213050392	   -178.50380495633891086982	      0.35734608865227596164	      0.75871157820496326618	     -0.91508865358671664936	     63.18618836953207562601	    -39.24407536798515394594	    -19.02124229799277799202	     64.29714715858393958570	      1.12219691755660644361	      6.66014622870521488807	      0.00000000000000000000	      0.00000000000000000000	     75.20011915408196045973	    -36.93121626706396654072	      6.38582003416309351707	     67.17985263735941714458	      1.17250961952651788778	      9.41616877808812979822	      0.00000000000000000000	      0.00000000000000000000	    -63.54744307859644436576	      7.77526714299818966225	      8.84134869680053370189	     57.18049862898823931801	    -13.25620341660395240524	     12.36398299120765997827	     20.95729954546134621296	     83.46566946699397249176	      0.00000000000000000000	      0.00000000000000000000	     55.34715516671303703333	     -0.04540277748406828379	      8.14376757028449382858	     21.05669776006115867517	     83.52972283045289714210	      0.00000000000000000000	      0.00000000000000000000
      9.01999999999999957367	     14.42146841637245024970	      6.66268302004522805504	   -178.54766378917835822904	      0.35732995775095172108	      0.75912245451878646030	     -0.91506226992886730010	     63.20303181211214393898	    -39.25906877190245580778	    -19.16912955700811949100	     64.17478857385304991112	      1.12006135738497203391	      6.61524835346731077124	      0.00000000000000000000	      0.00000000000000000000	     75.14915520953420013939	    -36.88144465588671039313	      6.36255495269783466483	     67.07403904093577295953	      1.17066282387554898570	      9.42874197352783305348	      0.00000000000000000000	      0.00000000000000000000	    -63.51831140026493471851	      7.72765313265782971541	      8.83568839780756043467	     57.21895126208886495078	    -13.24358142973094842887	     12.34234436283243852017	     20.99936749942838787319	     83.45551122298519430842	      0.00000000000000000000	      0.00000000000000000000	     55.34039061242290102882	     -0.02250401396591235337	      8.15293330056188025878	     21.05638276323605495577	     83.53671064926368217129	      0.00000000000000000000	      0.00000000000000000000
